<svg class="main-svg" xmlns="http://www.w3.org/2000/svg" xmlns:xlink="http://www.w3.org/1999/xlink" width="700" height="450" style="" viewBox="0 0 700 450"><rect x="0" y="0" width="700" height="450" style="fill: rgb(255, 255, 255); fill-opacity: 1;"/><defs id="defs-12b774"><g class="clips"><clipPath id="clip12b774xyplot" class="plotclip"><rect width="580" height="330"/></clipPath><clipPath class="axesclip" id="clip12b774x"><rect x="60" y="0" width="580" height="450"/></clipPath><clipPath class="axesclip" id="clip12b774y"><rect x="0" y="60" width="700" height="330"/></clipPath><clipPath class="axesclip" id="clip12b774xy"><rect x="60" y="60" width="580" height="330"/></clipPath></g><g class="gradients"/></defs><g class="bglayer"/><g class="layer-below"><g class="imagelayer"/><g class="shapelayer"/></g><g class="cartesianlayer"><g class="subplot xy"><g class="layer-subplot"><g class="shapelayer"/><g class="imagelayer"/></g><g class="gridlayer"><g class="x"><path class="xgrid crisp" transform="translate(153.93,0)" d="M0,60v330" style="stroke: rgb(238, 238, 238); stroke-opacity: 1; stroke-width: 1px;"/><path class="xgrid crisp" transform="translate(247.77,0)" d="M0,60v330" style="stroke: rgb(238, 238, 238); stroke-opacity: 1; stroke-width: 1px;"/><path class="xgrid crisp" transform="translate(341.6,0)" d="M0,60v330" style="stroke: rgb(238, 238, 238); stroke-opacity: 1; stroke-width: 1px;"/><path class="xgrid crisp" transform="translate(435.44,0)" d="M0,60v330" style="stroke: rgb(238, 238, 238); stroke-opacity: 1; stroke-width: 1px;"/><path class="xgrid crisp" transform="translate(529.27,0)" d="M0,60v330" style="stroke: rgb(238, 238, 238); stroke-opacity: 1; stroke-width: 1px;"/><path class="xgrid crisp" transform="translate(623.11,0)" d="M0,60v330" style="stroke: rgb(238, 238, 238); stroke-opacity: 1; stroke-width: 1px;"/></g><g class="y"><path class="ygrid crisp" transform="translate(0,334.02)" d="M60,0h580" style="stroke: rgb(238, 238, 238); stroke-opacity: 1; stroke-width: 1px;"/><path class="ygrid crisp" transform="translate(0,294.53)" d="M60,0h580" style="stroke: rgb(238, 238, 238); stroke-opacity: 1; stroke-width: 1px;"/><path class="ygrid crisp" transform="translate(0,255.05)" d="M60,0h580" style="stroke: rgb(238, 238, 238); stroke-opacity: 1; stroke-width: 1px;"/><path class="ygrid crisp" transform="translate(0,215.57)" d="M60,0h580" style="stroke: rgb(238, 238, 238); stroke-opacity: 1; stroke-width: 1px;"/><path class="ygrid crisp" transform="translate(0,176.09)" d="M60,0h580" style="stroke: rgb(238, 238, 238); stroke-opacity: 1; stroke-width: 1px;"/><path class="ygrid crisp" transform="translate(0,136.6)" d="M60,0h580" style="stroke: rgb(238, 238, 238); stroke-opacity: 1; stroke-width: 1px;"/><path class="ygrid crisp" transform="translate(0,97.12)" d="M60,0h580" style="stroke: rgb(238, 238, 238); stroke-opacity: 1; stroke-width: 1px;"/></g></g><g class="zerolinelayer"><path class="xzl zl crisp" transform="translate(60.09,0)" d="M0,60v330" style="stroke: rgb(68, 68, 68); stroke-opacity: 1; stroke-width: 1px;"/><path class="yzl zl crisp" transform="translate(0,373.5)" d="M60,0h580" style="stroke: rgb(68, 68, 68); stroke-opacity: 1; stroke-width: 1px;"/></g><path class="xlines-below"/><path class="ylines-below"/><g class="overlines-below"/><g class="xaxislayer-below"/><g class="yaxislayer-below"/><g class="overaxes-below"/><g class="plot" transform="translate(60, 60)" clip-path="url(#clip12b774xyplot)"><g class="scatterlayer mlayer"><g class="trace scatter trace51d9e2" style="stroke-miterlimit: 2; opacity: 1;"><g class="fills"/><g class="errorbars"/><g class="lines"><path class="js-line" d="M0,313.5L0.09,16.5L1.03,36.88L1.97,185.93L2.91,151.85L3.85,25.49L4.79,164.18L5.72,184.54L6.66,178.8L8.54,200.19L9.48,184.13L10.42,200.18L11.35,200.37L12.29,195.99L13.23,203.19L15.11,167.07L16.05,179.25L16.98,196.12L17.92,197.27L18.86,197.76L19.8,175.98L21.68,207.89L22.61,165.93L23.55,191.46L24.49,182.11L25.43,174.43L26.37,184.5L28.24,222.09L29.18,170.15L30.12,209.25L31.06,207.39L32,214L32.94,205.8L34.81,251.19L35.75,235.67L36.69,208.54L37.63,223.16L38.57,240.52L39.5,240.84L40.44,256.48L41.38,258.58L42.32,281.42L43.26,262.62L44.2,275.36L45.14,269L46.07,258.74L47.01,272.78L47.95,260.26L48.89,274.65L49.83,286.23L50.77,262.39L51.7,253.13L52.64,228.72L53.58,268.81L54.52,227.29L55.46,228.65L56.4,247.5L57.33,267.14L58.27,247.88L59.21,275.53L60.15,275.97L61.09,287.2L62.03,286.84L62.96,278.83L63.9,262.36L64.84,281.44L65.78,271.17L66.72,279.84L67.66,261.25L68.59,273.16L69.53,275.07L71.41,283.65L72.35,277.38L73.29,270.82L74.22,269.7L76.1,261.69L77.04,280.15L77.98,294.55L78.92,235.69L79.85,267.3L80.79,269.43L81.73,261.21L82.67,245.83L84.55,277.31L85.48,266.75L86.42,258.34L87.36,262.84L89.24,269.64L90.18,266.76L91.11,280.78L92.05,269.22L92.99,285.37L93.93,282.84L94.87,287L95.81,278.94L96.74,280.27L97.68,289.55L98.62,235.49L99.56,277.92L100.5,279L101.44,291.02L102.38,282.51L103.31,288.84L104.25,269.95L105.19,286.33L106.13,270.15L107.07,289.64L108.01,287.09L108.94,265.68L109.88,278.34L110.82,264.03L111.76,298.14L112.7,280.83L113.64,293.77L114.57,281.24L115.51,280.63L116.45,282.1L117.39,283.32L118.33,289.23L119.27,284.03L120.2,294.1L121.14,268.76L122.08,281.8L123.02,284.12L123.96,292.57L124.9,288.08L125.83,279.87L126.77,290.92L127.71,283.01L128.65,280.53L129.59,272.89L130.53,294.6L131.46,273.71L132.4,285.54L133.34,274.2L134.28,240.05L135.22,282.52L136.16,267.57L137.09,273.21L138.03,273.13L138.97,283.77L139.91,289.3L140.85,284.4L141.79,285.81L142.72,283.11L143.66,271.4L144.6,284.96L145.54,282.73L146.48,270.96L147.42,247.64L148.35,284.5L149.29,293.48L150.23,276.8L152.11,279.51L153.05,269.01L153.98,280.65L154.92,251.93L155.86,264.54L156.8,219.14L157.74,277.67L158.68,263.78L159.61,259.27L160.55,286.99L162.43,268.24L163.37,259.49L164.31,272.75L165.25,266.15L166.18,268.58L167.12,265.51L168.06,272.19L169,259.33L169.94,268.63L170.88,262.5L171.81,265.41L172.75,251.8L174.63,261.97L175.57,249.62L176.51,245.26L177.44,278.23L178.38,262.66L179.32,277.56L180.26,240.8L181.2,264.1L182.14,259.47L183.07,265.8L184.01,281.61L184.95,275.57L185.89,279.63L186.83,270.16L187.77,280.75L188.7,278.91L189.64,262.51L190.58,281.82L191.52,278.73L192.46,272.07L194.33,280.44L195.27,263.76L196.21,290.3L197.15,292.84L199.03,284.29L199.96,268.5L200.9,286.48L201.84,276.82L202.78,275.03L203.72,279.75L205.59,252.73L206.53,249.63L207.47,228.09L208.41,280.9L210.29,208.1L211.22,230.13L212.16,226.02L213.1,244.42L214.04,276L214.98,267.13L215.92,250.78L216.85,274.11L217.79,269.53L218.73,275.71L219.67,264.62L220.61,280.73L221.55,278.7L222.49,287.57L224.36,271.58L225.3,264.61L226.24,276.02L227.18,260.75L229.05,279.58L229.99,274.46L230.93,270.07L231.87,281.38L233.75,264.6L234.68,264.42L235.62,262.9L236.56,267.97L238.44,283.88L239.38,285.09L240.31,276.15L241.25,278.53L242.19,274.36L243.13,261.33L244.07,282.65L245.01,280.52L245.94,258.7L246.88,280.41L247.82,286.27L248.76,286.2L249.7,261.71L250.64,273.97L252.51,288.56L253.45,282.08L254.39,284.63L255.33,296.99L256.27,292.54L257.2,277.53L258.14,288.57L259.08,289.93L260.02,288.62L260.96,290.58L261.9,280.8L262.83,281.44L263.77,255.58L264.71,270.52L267.53,293.11L268.46,271.85L269.4,287.38L270.34,274.4L271.28,278.18L272.22,299.92L274.09,290.27L275.03,290.89L275.97,277.98L276.91,288.33L277.85,287.74L278.79,297.92L280.66,277.65L281.6,282.01L283.48,285.57L284.42,279.02L285.36,270.68L286.29,286.33L287.23,273.3L288.17,282.44L289.11,287.06L290.05,285.57L292.86,277.81L293.8,287.09L294.74,278.71L295.68,288.59L296.62,268.36L297.55,292.73L298.49,295.89L299.43,272.64L300.37,288.48L301.31,284.37L302.25,292.12L303.18,276.43L304.12,289.6L305.06,285.55L306,282.3L306.94,271.2L307.88,293.26L308.81,284.12L309.75,274.14L310.69,293.35L311.63,290.83L312.57,293.34L313.51,282.19L314.44,286.76L315.38,278.89L316.32,286.49L317.26,277.86L318.2,286.27L319.14,289.77L320.07,274.7L321.01,286.46L321.95,278.77L323.83,282.56L324.77,278.7L325.7,274.14L326.64,285.29L327.58,280.81L328.52,287.71L329.46,278.35L330.4,290.05L331.33,288.86L332.27,280.87L334.15,297.62L335.09,289.23L336.03,297.08L336.96,296.36L337.9,285.34L338.84,262.12L339.78,290.02L340.72,282.19L341.66,275.28L342.6,281L343.53,287.72L344.47,272.38L345.41,262.13L346.35,287.04L347.29,272.06L348.23,281.88L350.1,291.72L351.04,281.19L351.98,293.9L352.92,277.61L353.86,290.34L354.79,288.5L355.73,267.15L356.67,286.71L357.61,299.05L358.55,281.19L359.49,297.92L360.42,265.47L361.36,294.82L362.3,273.71L363.24,290.09L364.18,287.16L365.12,297.32L366.05,288.62L367.93,275.71L368.87,296.65L369.81,294.22L370.75,274.77L371.68,285.09L372.62,283.95L373.56,294.87L374.5,292.64L375.44,281.01L376.38,286.33L377.31,289.4L378.25,289.16L379.19,286.79L380.13,292.26L381.07,296.29L382.01,268.36L382.94,295.16L383.88,284.66L384.82,281.62L385.76,284.54L388.57,294.69L389.51,285.81L391.39,298.55L392.33,295.47L393.27,295.73L394.2,281.53L395.14,289.83L396.08,282.49L397.02,297.44L397.96,283.1L398.9,295.64L399.83,294.07L400.77,292.15L401.71,282.25L402.65,297.49L403.59,295.94L405.47,284.57L406.4,288.37L407.34,285.45L408.28,285.67L409.22,270.22L410.16,287.35L411.1,295.97L412.03,273.55L412.97,282.43L413.91,282.45L414.85,291.64L415.79,286.34L416.73,291.08L417.66,284.26L418.6,289.63L419.54,286.49L420.48,298.01L421.42,295.93L422.36,275.1L423.29,285.85L424.23,280.88L425.17,292.35L426.11,277.72L427.05,293.58L427.99,293.22L428.92,287.75L429.86,277.08L430.8,291.33L431.74,296.1L432.68,277.06L433.62,280.64L434.55,273.49L435.49,288.05L436.43,285.93L437.37,287.18L438.31,282.59L439.25,286.91L440.18,295.39L441.12,291.43L442.06,290.93L443,282.42L443.94,289.56L444.88,295.76L445.81,294.24L446.75,293.83L447.69,290.21L448.63,288.97L449.57,279.5L450.51,275.27L451.44,290.93L452.38,295.92L453.32,291.39L454.26,294.27L455.2,278.11L456.14,291.47L457.07,286.71L458.01,294.69L458.95,287.23L461.77,289.53L462.71,294.22L463.64,290.3L464.58,298.62L466.46,285.98L467.4,283.25L468.34,291.32L469.27,284.54L470.21,296.46L471.15,283.21L472.09,299.01L473.03,294.06L474.9,288.69L475.84,290.44L476.78,282.15L477.72,288.45L479.6,282.53L480.53,297.15L481.47,294.75L482.41,287.98L484.29,294.99L485.23,295.94L486.16,269.57L487.1,294.81L488.04,287.93L488.98,289.39L489.92,296.32L490.86,280.11L491.79,301.58L492.73,279.82L493.67,295.14L494.61,291.89L495.55,291.09L496.49,267.03L497.42,224.42L498.36,248.16L499.3,240.11L500.24,260.18L501.18,235.86L502.12,252.17L503.99,278.71L504.93,260.18L505.87,259.45L506.81,273.43L507.75,282.77L508.68,275.39L509.62,268.63L510.56,255.78L511.5,276.72L512.44,268.91L513.38,280.21L514.31,255.4L515.25,255.03L516.19,284.89L517.13,282.78L518.07,277.07L519.94,260.88L520.88,281.92L521.82,266L522.76,265.14L523.7,261.64L524.64,277.9L525.58,274.03L526.51,290.29L527.45,258.82L528.39,281.07L529.33,290.84L530.27,239.86L532.14,286.51L533.08,282.14L534.02,274.44L534.96,277.75L535.9,292.42L536.84,294.65L538.71,278L539.65,270.62L540.59,285.74L541.53,282.73L542.47,273.96L543.4,289.1L544.34,284.98L545.28,269.94L546.22,278.27L547.16,258.25L548.1,284.5L549.03,285.27L549.97,282.06L550.91,266.09L552.79,281.64L553.73,269.15L554.66,271.27L555.6,282.77L556.54,283.98L557.48,278.11L558.42,265.53L559.36,284.29L560.29,257.54L561.23,278.12L562.17,255.44L563.11,282.89L564.05,288.06L564.99,281.12L566.86,285.8L567.8,266.63L569.68,294.93L570.62,281.25L571.55,278.73L572.49,286.94L573.43,269.1L574.37,277.66L576.25,293.78L577.18,270.3L578.12,286.37L579.06,270.74L580,274.8L0.09,293.94L1.03,309.74L0.09,276.62" style="vector-effect: non-scaling-stroke; fill: none; stroke: rgb(31, 119, 180); stroke-opacity: 1; stroke-width: 2px; opacity: 1;"/></g><g class="points"/><g class="text"/></g></g></g><g class="overplot"/><path class="xlines-above crisp" d="M0,0" style="fill: none;"/><path class="ylines-above crisp" d="M0,0" style="fill: none;"/><g class="overlines-above"/><g class="xaxislayer-above"><g class="xtick"><text text-anchor="middle" x="0" y="403" transform="translate(60.09,0)" style="font-family: 'Open Sans', verdana, arial, sans-serif; font-size: 12px; fill: rgb(68, 68, 68); fill-opacity: 1; white-space: pre;">0</text></g><g class="xtick"><text text-anchor="middle" x="0" y="403" transform="translate(153.93,0)" style="font-family: 'Open Sans', verdana, arial, sans-serif; font-size: 12px; fill: rgb(68, 68, 68); fill-opacity: 1; white-space: pre;">1000</text></g><g class="xtick"><text text-anchor="middle" x="0" y="403" transform="translate(247.77,0)" style="font-family: 'Open Sans', verdana, arial, sans-serif; font-size: 12px; fill: rgb(68, 68, 68); fill-opacity: 1; white-space: pre;">2000</text></g><g class="xtick"><text text-anchor="middle" x="0" y="403" transform="translate(341.6,0)" style="font-family: 'Open Sans', verdana, arial, sans-serif; font-size: 12px; fill: rgb(68, 68, 68); fill-opacity: 1; white-space: pre;">3000</text></g><g class="xtick"><text text-anchor="middle" x="0" y="403" transform="translate(435.44,0)" style="font-family: 'Open Sans', verdana, arial, sans-serif; font-size: 12px; fill: rgb(68, 68, 68); fill-opacity: 1; white-space: pre;">4000</text></g><g class="xtick"><text text-anchor="middle" x="0" y="403" transform="translate(529.27,0)" style="font-family: 'Open Sans', verdana, arial, sans-serif; font-size: 12px; fill: rgb(68, 68, 68); fill-opacity: 1; white-space: pre;">5000</text></g><g class="xtick"><text text-anchor="middle" x="0" y="403" transform="translate(623.11,0)" style="font-family: 'Open Sans', verdana, arial, sans-serif; font-size: 12px; fill: rgb(68, 68, 68); fill-opacity: 1; white-space: pre;">6000</text></g></g><g class="yaxislayer-above"><g class="ytick"><text text-anchor="end" x="59" y="4.199999999999999" transform="translate(0,373.5)" style="font-family: 'Open Sans', verdana, arial, sans-serif; font-size: 12px; fill: rgb(68, 68, 68); fill-opacity: 1; white-space: pre;">0</text></g><g class="ytick"><text text-anchor="end" x="59" y="4.199999999999999" transform="translate(0,334.02)" style="font-family: 'Open Sans', verdana, arial, sans-serif; font-size: 12px; fill: rgb(68, 68, 68); fill-opacity: 1; white-space: pre;">1M</text></g><g class="ytick"><text text-anchor="end" x="59" y="4.199999999999999" transform="translate(0,294.53)" style="font-family: 'Open Sans', verdana, arial, sans-serif; font-size: 12px; fill: rgb(68, 68, 68); fill-opacity: 1; white-space: pre;">2M</text></g><g class="ytick"><text text-anchor="end" x="59" y="4.199999999999999" transform="translate(0,255.05)" style="font-family: 'Open Sans', verdana, arial, sans-serif; font-size: 12px; fill: rgb(68, 68, 68); fill-opacity: 1; white-space: pre;">3M</text></g><g class="ytick"><text text-anchor="end" x="59" y="4.199999999999999" transform="translate(0,215.57)" style="font-family: 'Open Sans', verdana, arial, sans-serif; font-size: 12px; fill: rgb(68, 68, 68); fill-opacity: 1; white-space: pre;">4M</text></g><g class="ytick"><text text-anchor="end" x="59" y="4.199999999999999" transform="translate(0,176.09)" style="font-family: 'Open Sans', verdana, arial, sans-serif; font-size: 12px; fill: rgb(68, 68, 68); fill-opacity: 1; white-space: pre;">5M</text></g><g class="ytick"><text text-anchor="end" x="59" y="4.199999999999999" transform="translate(0,136.6)" style="font-family: 'Open Sans', verdana, arial, sans-serif; font-size: 12px; fill: rgb(68, 68, 68); fill-opacity: 1; white-space: pre;">6M</text></g><g class="ytick"><text text-anchor="end" x="59" y="4.199999999999999" transform="translate(0,97.12)" style="font-family: 'Open Sans', verdana, arial, sans-serif; font-size: 12px; fill: rgb(68, 68, 68); fill-opacity: 1; white-space: pre;">7M</text></g></g><g class="overaxes-above"/></g></g><g class="polarlayer"/><g class="ternarylayer"/><g class="geolayer"/><g class="pielayer"/><g class="glimages"/><defs id="topdefs-12b774"><g class="clips"/></defs><g class="layer-above"><g class="imagelayer"/><g class="shapelayer"/></g><g class="infolayer"><g class="g-gtitle"><text class="gtitle" x="350" y="30" text-anchor="middle" dy="0em" style="font-family: 'Open Sans', verdana, arial, sans-serif; font-size: 17px; fill: rgb(68, 68, 68); opacity: 1; font-weight: normal; white-space: pre;">Losses</text></g><g class="g-xtitle"><text class="xtitle" x="350" y="442" text-anchor="middle" style="font-family: 'Open Sans', verdana, arial, sans-serif; font-size: 14px; fill: rgb(68, 68, 68); opacity: 1; font-weight: normal; white-space: pre;">Step</text></g><g class="g-ytitle"><text class="ytitle" transform="rotate(-90,22,225)" x="22" y="225" text-anchor="middle" style="font-family: 'Open Sans', verdana, arial, sans-serif; font-size: 14px; fill: rgb(68, 68, 68); opacity: 1; font-weight: normal; white-space: pre;">Loss</text></g></g></svg>